<svg width="1200" height="800" viewBox="0 0 1200 800" fill="none" xmlns="http://www.w3.org/2000/svg">
<rect width="1200" height="800" rx="48" fill="#09111F"/>
<circle cx="220" cy="180" r="160" fill="#68D6FF" fill-opacity="0.12"/>
<circle cx="980" cy="620" r="220" fill="#86EFAC" fill-opacity="0.10"/>
<rect x="240" y="130" width="720" height="540" rx="40" stroke="#A7C7FF" stroke-opacity="0.22" stroke-width="6"/>
<path d="M320 520C390 440 420 340 510 340C595 340 620 460 690 460C770 460 810 250 900 250" stroke="#E2F3FF" stroke-width="18" stroke-linecap="round"/>
<path d="M330 420C400 390 450 430 520 395C585 360 650 300 720 330C790 360 840 460 920 420" stroke="#68D6FF" stroke-width="12" stroke-linecap="round"/>
<circle cx="516" cy="398" r="18" fill="#FB7185"/>
<text x="92" y="730" fill="#91A4C6" font-family="Segoe UI, Arial" font-size="40">Demo Chest X-ray Slice 01</text>
</svg>
